<svg width="27" height="20" viewBox="0 0 27 20" fill="none" xmlns="http://www.w3.org/2000/svg">
<path d="M0.192322 3.62701C0.192322 2.76506 0.534732 1.93841 1.14422 1.32892C1.75372 0.719424 2.58037 0.377014 3.44232 0.377014H22.9423C23.8043 0.377014 24.6309 0.719424 25.2404 1.32892C25.8499 1.93841 26.1923 2.76506 26.1923 3.62701V16.627C26.1923 17.489 25.8499 18.3156 25.2404 18.9251C24.6309 19.5346 23.8043 19.877 22.9423 19.877H3.44232C2.58037 19.877 1.75372 19.5346 1.14422 18.9251C0.534732 18.3156 0.192322 17.489 0.192322 16.627V3.62701ZM3.44232 2.00201C3.01134 2.00201 2.59802 2.17322 2.29327 2.47797C1.98853 2.78271 1.81732 3.19604 1.81732 3.62701V3.97964L13.1923 10.8046L24.5673 3.97964V3.62701C24.5673 3.19604 24.3961 2.78271 24.0914 2.47797C23.7866 2.17322 23.3733 2.00201 22.9423 2.00201H3.44232ZM24.5673 5.87439L16.8356 10.5138L24.5673 15.1873V5.87601V5.87439ZM24.5121 17.0511L15.2577 11.4595L13.1923 12.6994L11.1253 11.4595L1.87257 17.0495C1.96552 17.3947 2.1697 17.6996 2.45349 17.917C2.73728 18.1344 3.08484 18.2522 3.44232 18.252H22.9423C23.2996 18.2523 23.647 18.1347 23.9307 17.9177C24.2145 17.7006 24.4188 17.396 24.5121 17.0511ZM1.81732 15.1873L9.54907 10.5138L1.81732 5.87439V15.1856V15.1873Z" fill="#A0A0A0"/>
</svg>
