<svg width="26" height="25" viewBox="0 0 26 25" fill="none" xmlns="http://www.w3.org/2000/svg">
<path d="M13 4.57654L11.8348 3.37892C9.09995 0.567666 4.0852 1.53779 2.27495 5.07217C1.42508 6.73454 1.23333 9.13467 2.7852 12.1978C4.2802 15.1472 7.39045 18.6799 13 22.5279C18.6095 18.6799 21.7181 15.1472 23.2147 12.1978C24.7666 9.13304 24.5765 6.73454 23.725 5.07217C21.9147 1.53779 16.9 0.566041 14.1651 3.37729L13 4.57654ZM13 24.486C-11.9162 8.02154 5.32833 -4.82896 12.714 1.96842C12.8115 2.05779 12.9073 2.15042 13 2.24629C13.0916 2.1505 13.187 2.05835 13.286 1.97004C20.67 -4.83221 37.9161 8.01992 13 24.486Z" fill="#A0A0A0"/>
</svg>
