<svg width="18" height="29" viewBox="0 0 18 29" fill="none" xmlns="http://www.w3.org/2000/svg">
<path d="M9.19232 2.74133C10.1206 2.74133 11.0108 3.11008 11.6672 3.76646C12.3236 4.42284 12.6923 5.31308 12.6923 6.24133V13.2413H5.69232V6.24133C5.69232 5.31308 6.06107 4.42284 6.71745 3.76646C7.37383 3.11008 8.26406 2.74133 9.19232 2.74133ZM14.4423 13.2413V6.24133C14.4423 4.84895 13.8892 3.51359 12.9046 2.52902C11.9201 1.54446 10.5847 0.991333 9.19232 0.991333C7.79994 0.991333 6.46458 1.54446 5.48001 2.52902C4.49545 3.51359 3.94232 4.84895 3.94232 6.24133V13.2413C3.01406 13.2413 2.12383 13.6101 1.46745 14.2665C0.811071 14.9228 0.442322 15.8131 0.442322 16.7413V25.4913C0.442322 26.4196 0.811071 27.3098 1.46745 27.9662C2.12383 28.6226 3.01406 28.9913 3.94232 28.9913H14.4423C15.3706 28.9913 16.2608 28.6226 16.9172 27.9662C17.5736 27.3098 17.9423 26.4196 17.9423 25.4913V16.7413C17.9423 15.8131 17.5736 14.9228 16.9172 14.2665C16.2608 13.6101 15.3706 13.2413 14.4423 13.2413ZM3.94232 14.9913H14.4423C14.9065 14.9913 15.3516 15.1757 15.6798 15.5039C16.0079 15.8321 16.1923 16.2772 16.1923 16.7413V25.4913C16.1923 25.9555 16.0079 26.4006 15.6798 26.7288C15.3516 27.057 14.9065 27.2413 14.4423 27.2413H3.94232C3.47819 27.2413 3.03307 27.057 2.70489 26.7288C2.3767 26.4006 2.19232 25.9555 2.19232 25.4913V16.7413C2.19232 16.2772 2.3767 15.8321 2.70489 15.5039C3.03307 15.1757 3.47819 14.9913 3.94232 14.9913Z" fill="#A0A0A0"/>
</svg>
