<svg width="28" height="27" viewBox="0 0 28 27" fill="none" xmlns="http://www.w3.org/2000/svg">
<path d="M23.8895 2.23993C24.3333 2.23993 24.7589 2.42013 25.0727 2.74089C25.3866 3.06165 25.5629 3.4967 25.5629 3.95032V17.6334C25.5629 18.0871 25.3866 18.5221 25.0727 18.8429C24.7589 19.1636 24.3333 19.3438 23.8895 19.3438H7.84846C6.96092 19.344 6.10979 19.7045 5.4823 20.3461L2.13554 23.7669V3.95032C2.13554 3.4967 2.31184 3.06165 2.62566 2.74089C2.93948 2.42013 3.36511 2.23993 3.80892 2.23993H23.8895ZM3.80892 0.529541C2.9213 0.529541 2.07004 0.889944 1.4424 1.53146C0.814763 2.17298 0.462158 3.04307 0.462158 3.95032L0.462158 25.8313C0.462193 26.0006 0.511343 26.166 0.603387 26.3066C0.695431 26.4473 0.826231 26.5568 0.979232 26.6215C1.13223 26.6861 1.30056 26.7029 1.4629 26.6697C1.62524 26.6366 1.77431 26.5549 1.89123 26.4351L6.66538 21.5554C6.97913 21.2346 7.40469 21.0543 7.84846 21.0542H23.8895C24.7771 21.0542 25.6284 20.6938 26.256 20.0523C26.8836 19.4108 27.2363 18.5407 27.2363 17.6334V3.95032C27.2363 3.04307 26.8836 2.17298 26.256 1.53146C25.6284 0.889944 24.7771 0.529541 23.8895 0.529541L3.80892 0.529541Z" fill="#A0A0A0"/>
</svg>
