<svg width="358" height="366" viewBox="0 0 358 366" fill="none" xmlns="http://www.w3.org/2000/svg">
<path style="mix-blend-mode:multiply" opacity="0.6" d="M324.09 347.978C324.09 357.757 262.048 365.699 185.512 365.699C108.976 365.699 46.9337 357.757 46.9337 347.978C46.9337 338.199 108.976 330.256 185.512 330.256C262.048 330.256 324.09 338.188 324.09 347.978Z" fill="url(#paint0_radial)"/>
<path d="M50.5519 73.494C63.5905 85.5656 162.075 194.525 151.308 206.205C140.54 217.885 24.5617 127.887 11.5449 115.804C-1.47195 103.722 -3.28648 84.4682 7.4812 72.7878C18.2489 61.1074 37.546 61.4116 50.5519 73.494Z" fill="#8E6650"/>
<path d="M64.7531 88.2928C59.3204 82.4146 54.9742 77.8294 52.2469 75.1348C43.339 78.6476 35.2931 84.0399 28.658 90.944C21.3397 98.1712 15.8656 107.051 12.6966 116.836C15.3913 119.216 20.3025 123.236 26.6914 128.321C27.3216 119.759 32.1241 110.252 40.0776 102.146C47.6509 94.421 56.7018 89.4554 64.7531 88.2928Z" fill="#E6D4B2"/>
<g style="mix-blend-mode:soft-light" opacity="0.2">
<path d="M1.14664 85.1093C-1.15684 95.5184 2.46137 107.438 11.5449 115.859C21.3238 124.964 89.6351 178.324 127.295 199.055C89.0157 158.288 26.9521 135.09 1.14664 85.1093Z" fill="white"/>
</g>
<path d="M102.532 47.9927C111.953 63.0305 178.504 193.59 164.9 201.794C151.297 209.997 62.6887 92.9106 53.2683 77.9271C43.8479 62.9436 47.2488 44.016 60.8741 35.7691C74.4994 27.5222 93.1229 32.9549 102.532 47.9927Z" fill="#8E6650"/>
<path d="M83.1049 69.8976C93.6444 65.2689 104.608 64.0954 112.681 66.6379C108.563 58.7387 105.27 52.6758 103.336 49.4053C94.1384 49.5269 85.0632 51.535 76.6725 55.3052C66.0244 59.9882 57.332 66.6705 51.3777 74.5154C51.942 75.702 52.5732 76.8556 53.2683 77.9706C54.5396 80.0024 57.2668 83.9032 61.048 89.0968C64.8618 81.3715 72.7936 74.3959 83.1049 69.8976Z" fill="#E6D4B2"/>
<g style="mix-blend-mode:soft-light" opacity="0.2">
<path d="M108.335 139.958C97.7081 121.911 86.4624 104.558 74.6516 87.2389C65.4073 73.5328 58.1871 58.5656 53.214 42.7991C46.3579 52.3281 45.945 66.2468 53.214 77.8837C59.516 87.9451 101.283 143.728 132.315 177.064C124.307 164.731 115.821 152.66 108.335 139.958Z" fill="white"/>
</g>
<path d="M141.909 31.9879C148.537 48.373 190.988 187.744 175.994 193.286C161 198.827 94.242 68.4416 87.6141 52.0347C80.9862 35.6278 87.7662 17.9062 102.761 12.354C117.755 6.80173 135.281 15.6245 141.909 31.9879Z" fill="#8E6650"/>
<path d="M120.308 45.2981C131.402 44.2115 141.865 46.3086 148.787 50.8612C145.983 41.6908 143.756 34.9324 142.626 32.0314C142.474 31.6619 142.3 31.3142 142.137 30.9448C134.482 29.0934 126.566 28.5642 118.733 29.3802C105.694 30.6623 94.2963 35.1171 85.8539 41.9515C86.1594 45.2467 86.9351 48.4813 88.1574 51.5566C88.7658 53.0995 89.885 55.642 91.417 58.9886C97.067 51.6435 107.715 46.5476 120.308 45.2981Z" fill="#E6D4B2"/>
<g style="mix-blend-mode:soft-light" opacity="0.2">
<path d="M118.765 100.538C112.137 86.011 103.01 70.7668 99.6639 55.0227C96.0131 37.8552 101.511 23.6432 110.442 10.6155C108.132 10.7847 105.856 11.2634 103.673 12.0389C88.6246 17.4281 81.6381 35.128 88.1574 51.5566C91.7864 60.7705 113.898 105.884 135.303 142.924C130.315 128.571 124.991 114.153 118.765 100.538Z" fill="white"/>
</g>
<path d="M195.258 30.8362C196.595 48.221 194.465 192.026 178.286 192.514C162.108 193.003 138.019 50.0355 136.683 32.6181C135.346 15.2008 147.374 0.695381 163.553 0.206434C179.732 -0.282512 193.922 13.3971 195.258 30.8362Z" fill="#8E6650"/>
<path d="M195.584 50.079C195.584 40.7673 195.497 33.8677 195.258 30.8362C195.258 30.532 195.182 30.2386 195.15 29.9344C187.067 25.6479 178.193 23.0596 169.073 22.3285C157.121 21.242 145.875 23.1108 136.704 27.4353C136.574 29.1459 136.574 30.864 136.704 32.5747C136.878 34.8238 137.432 39.1809 138.302 45.0591C145.321 39.7568 156.012 37.236 167.704 38.2573C179.395 39.2787 189.782 43.8204 195.584 50.079Z" fill="#E6D4B2"/>
<g style="mix-blend-mode:soft-light" opacity="0.2">
<path d="M153.611 101.82C150.514 83.9249 150.351 64.8777 149.134 46.7758C148.178 32.6507 147.57 17.5912 151.242 3.68335C141.746 9.04003 135.716 20.0468 136.683 32.6181C137.584 44.4506 148.993 114.109 161.293 157.571C165.302 139.556 156.61 119.183 153.611 101.82Z" fill="white"/>
</g>
<g style="mix-blend-mode:multiply">
<path d="M165.683 0.260742C182.198 15.9288 193.281 37.475 189.587 60.5315C187.957 70.7342 184.958 80.4479 182.372 90.4333C178.971 103.537 178.026 116.51 178.145 130.049C178.406 150.791 180.134 171.501 179.362 192.232C194.574 185.43 196.54 47.8298 195.237 30.8362C193.987 14.1903 180.949 0.966998 165.683 0.260742Z" fill="#EAD9D8"/>
</g>
<path d="M251.628 51.122C247.706 67.9418 202.636 202.88 186.892 198.425C171.148 193.97 190.695 51.8065 194.639 34.9868C198.583 18.167 214.501 8.14907 230.245 12.6039C245.989 17.0588 255.551 34.3023 251.628 51.122Z" fill="#8E6650"/>
<path d="M225.595 35.3128C216.177 31.4629 205.955 29.9926 195.834 31.0318C195.355 32.3242 194.955 33.6451 194.639 34.9868C194.128 37.1599 193.335 41.5713 192.401 47.493C200.148 45.0917 210.101 45.798 220.032 49.6661C231.799 54.2513 240.915 62.2483 243.827 70.5278L246.087 69.7346C248.456 62.3787 250.216 56.5548 251.161 53.0561C245.011 45.6893 236.145 39.4743 225.595 35.3128Z" fill="#E6D4B2"/>
<g style="mix-blend-mode:soft-light" opacity="0.2">
<path d="M196.714 77.5795C201.875 55.3922 206.656 30.2712 220.271 11.6913C208.243 12.7778 197.703 21.7419 194.617 34.9869C192.336 44.7658 184.741 97.1917 181.916 140.078C186.023 119.194 191.814 98.6151 196.714 77.5795Z" fill="white"/>
</g>
<path d="M301.946 66.3555C294.797 81.8496 223.835 203.423 209.068 195.937C194.302 188.451 241.361 54.8272 248.477 39.3222C255.594 23.8172 273.414 17.3305 288.18 24.795C302.946 32.2596 309.118 50.8613 301.946 66.3555Z" fill="#8E6650"/>
<path d="M278.162 47.8407C268.318 42.2558 258.039 39.3765 248.488 39.3221C247.315 41.8538 245.087 47.5473 242.241 55.3161C250.477 53.5885 260.799 55.6964 270.567 61.2378C281.552 67.4637 289.429 76.6885 291.114 85.3048L291.722 85.1853C295.775 78.1119 298.904 72.4075 300.74 68.8871C295.075 60.1085 287.316 52.8761 278.162 47.8407Z" fill="#E6D4B2"/>
<g style="mix-blend-mode:soft-light" opacity="0.2">
<path d="M247.337 85.9024C254.236 68.5176 262.548 46.3412 256.583 28.7174C253.138 31.6167 250.371 35.2367 248.477 39.3221C243.045 51.1003 214.599 131.092 207.732 172.12C227.551 147.716 235.928 114.685 247.337 85.9024Z" fill="white"/>
</g>
<path d="M328.599 102.863C318.82 114.077 220.303 207.824 209.416 198.143C198.529 188.462 279.477 78.9919 289.19 67.757C291.439 65.1011 294.196 62.9201 297.297 61.3417C300.399 59.7632 303.784 58.8189 307.255 58.564C310.726 58.3091 314.213 58.7486 317.512 59.8569C320.812 60.9652 323.857 62.7201 326.47 65.0189C331.712 69.7906 334.871 76.4287 335.27 83.5059C335.668 90.583 333.273 97.5338 328.599 102.863Z" fill="#8E6650"/>
<path d="M292.048 64.9755C291.029 65.84 290.074 66.7769 289.19 67.7788C287.789 69.3977 284.844 73.1028 280.976 78.2422C289.831 79.0354 299.447 84.9462 307.053 94.3774C311.923 100.237 315.337 107.166 317.017 114.598C322.808 108.948 326.948 104.743 328.578 102.863C328.817 102.581 329.023 102.288 329.251 101.994C326.725 95.7621 323.286 89.9399 319.049 84.718C311.291 75.0586 301.838 68.2677 292.048 64.9755Z" fill="#E6D4B2"/>
<g style="mix-blend-mode:soft-light" opacity="0.2">
<path d="M258.658 125.572C265.417 116.239 273.175 107.829 280.563 98.9954C288.452 89.5642 297.579 79.0573 301.327 67.1161C302.139 64.6418 302.528 62.0486 302.479 59.4451C297.305 60.8207 292.666 63.7252 289.169 67.7789C282.562 75.3847 243.034 128.452 221.803 164.666C238.101 157.408 248.249 139.937 258.658 125.572Z" fill="white"/>
</g>
<path d="M346.451 146.945C334.499 155.637 228.789 218.027 220.129 206.303C211.47 194.579 303.087 113.218 315.072 104.482C320.758 100.278 327.875 98.4897 334.873 99.5071C341.872 100.525 348.185 104.265 352.438 109.915C354.495 112.733 355.972 115.93 356.785 119.323C357.598 122.715 357.73 126.236 357.173 129.679C356.616 133.123 355.382 136.422 353.541 139.386C351.701 142.349 349.291 144.919 346.451 146.945Z" fill="#8E6650"/>
<path d="M317.419 102.972C316.637 103.439 315.865 103.939 315.115 104.482C313.214 105.873 309.292 109.1 304.087 113.588C310.704 116.119 317.343 121.096 322.884 127.984C330.034 136.851 333.891 147.042 333.402 155.289C339.813 151.399 344.485 148.411 346.495 146.945C347.049 146.543 347.581 146.108 348.06 145.684C345.933 135.618 341.383 126.223 334.804 118.314C329.969 112.205 324.081 107.01 317.419 102.972Z" fill="#E6D4B2"/>
<g style="mix-blend-mode:soft-light" opacity="0.2">
<path d="M289.299 134.004C306.26 120.965 324.558 109.937 344.637 102.983C340.096 100.33 334.879 99.0602 329.627 99.3305C324.375 99.6007 319.316 101.399 315.072 104.504C306.38 110.86 255.453 155.691 231.745 184.137C254.182 172.946 269.502 149.216 289.299 134.004Z" fill="white"/>
</g>
<path d="M173.44 335.732C173.44 335.732 173.136 333.45 172.789 330.05C172.593 328.344 172.376 326.355 172.191 324.226C172.006 322.096 171.821 319.825 171.637 317.554C171.452 315.283 171.05 313.013 171.017 310.883C171.034 308.93 171.242 306.983 171.637 305.07C171.811 304.211 172.006 303.44 172.213 302.745C172.419 302.049 172.604 301.452 172.799 300.952C172.993 300.418 173.218 299.895 173.473 299.387H173.995C174.249 299.895 174.474 300.418 174.668 300.952C174.864 301.452 175.049 302.038 175.255 302.745C175.461 303.451 175.646 304.222 175.82 305.07C176.22 306.986 176.428 308.937 176.439 310.894C176.439 313.067 175.961 315.294 175.809 317.565C175.657 319.836 175.472 322.107 175.244 324.237C175.016 326.366 174.831 328.344 174.647 330.05C174.288 333.461 173.973 335.732 173.973 335.732H173.44Z" fill="#E1A750"/>
<path d="M157.273 344.99C157.766 344.068 158.318 343.179 158.924 342.328C159.556 341.449 160.235 340.603 160.956 339.796C161.789 338.855 162.69 337.976 163.651 337.167C164.14 336.743 164.65 336.308 165.128 335.863C165.622 335.442 166.162 335.077 166.736 334.776C167.303 334.52 167.903 334.344 168.518 334.255C169.087 334.173 169.661 334.144 170.235 334.168C170.734 334.217 171.229 334.308 171.713 334.439C172.091 334.554 172.456 334.711 172.799 334.906C173.123 335.069 173.425 335.27 173.701 335.504V336.015C173.701 336.015 173.397 336.352 172.952 336.754L172.582 337.08C172.437 337.186 172.303 337.306 172.18 337.438C171.883 337.712 171.571 337.97 171.246 338.21C170.904 338.498 170.541 338.759 170.159 338.992C169.781 339.278 169.369 339.515 168.931 339.698C168.445 339.89 167.944 340.039 167.432 340.144C166.893 340.294 166.363 340.475 165.846 340.687C165.335 340.937 164.759 341.154 164.313 341.426L162.825 342.208C161.858 342.73 160.956 343.295 160.185 343.729C158.653 344.675 157.631 345.359 157.631 345.359L157.273 344.99Z" fill="#E1A750"/>
<path d="M166.226 348.716C165.924 347.85 165.695 346.959 165.541 346.054C165.465 345.642 165.422 345.196 165.357 344.718C165.291 344.24 165.302 343.729 165.27 343.197C165.244 342.643 165.255 342.087 165.302 341.534C165.363 340.941 165.465 340.353 165.606 339.774C165.728 339.146 165.887 338.525 166.085 337.916C166.274 337.269 166.58 336.662 166.986 336.123C167.427 335.624 167.958 335.211 168.551 334.907C169.101 334.648 169.687 334.472 170.289 334.385C170.791 334.353 171.294 334.378 171.789 334.461C172.168 334.56 172.533 334.706 172.875 334.896C173.174 335.05 173.449 335.248 173.69 335.482V335.993C173.69 335.993 173.43 336.33 173.082 336.743C172.919 336.96 172.712 337.156 172.528 337.406C172.343 337.655 172.18 337.96 172.006 338.188C171.832 338.416 171.745 338.742 171.582 338.938C171.472 339.2 171.309 339.436 171.104 339.633C170.931 339.905 170.594 340.024 170.311 340.318C169.986 340.59 169.708 340.913 169.485 341.274C169.233 341.65 169.011 342.046 168.823 342.458C168.627 342.871 168.453 343.306 168.247 343.718C167.921 344.577 167.617 345.413 167.399 346.163C166.954 347.652 166.715 348.695 166.715 348.695L166.226 348.716Z" fill="#E1A750"/>
<path d="M175.081 350.227C174.483 349.622 173.924 348.98 173.408 348.304C172.876 347.605 172.379 346.879 171.919 346.131C171.381 345.252 170.912 344.333 170.518 343.382L169.866 341.85C169.624 341.333 169.477 340.777 169.431 340.209C169.403 339.642 169.48 339.074 169.659 338.536C169.831 338.004 170.084 337.502 170.409 337.047C170.704 336.623 171.072 336.255 171.496 335.96L172.039 335.645C172.206 335.581 172.376 335.527 172.55 335.482C172.793 335.414 173.047 335.388 173.299 335.406H173.56L173.886 335.808V336.069C173.886 336.232 173.886 336.428 173.94 336.678C174.029 337.206 174.186 337.721 174.408 338.21C174.505 338.47 174.614 338.731 174.69 339.014C174.793 339.311 174.845 339.623 174.842 339.937C174.826 340.303 174.775 340.667 174.69 341.024C174.606 341.45 174.566 341.883 174.57 342.317C174.57 343.208 174.723 344.12 174.799 345.001C174.875 345.881 175.027 346.717 175.146 347.434C175.385 348.89 175.548 349.857 175.548 349.857L175.081 350.227Z" fill="#E1A750"/>
<path d="M201.571 277.493C201.571 291.825 174.147 303.429 174.147 303.429C174.147 303.429 147.472 297.073 147.494 271.528C147.494 257.197 159.044 251.514 174.179 251.525C189.315 251.536 201.582 263.162 201.571 277.493Z" fill="#5B4133"/>
<path d="M209.775 337.732C209.775 337.732 209.329 335.482 208.775 332.103C208.482 330.419 208.134 328.452 207.819 326.334C207.504 324.215 207.189 321.988 206.863 319.706C206.537 317.424 206.004 315.207 205.841 313.089C205.728 311.136 205.816 309.178 206.102 307.243C206.222 306.385 206.363 305.592 206.526 304.885C206.689 304.179 206.852 303.571 207.004 303.06C207.168 302.518 207.36 301.985 207.58 301.463H208.101C208.385 301.954 208.639 302.462 208.862 302.984C209.079 303.473 209.318 304.07 209.557 304.733C209.796 305.396 210.046 306.178 210.264 307.026C210.781 308.911 211.105 310.844 211.231 312.795C211.328 314.968 211.024 317.218 211.013 319.488C211.002 321.759 210.948 324.041 210.861 326.182C210.774 328.322 210.698 330.321 210.611 332.027C210.47 335.45 210.296 337.732 210.296 337.732H209.775Z" fill="#E1A750"/>
<path d="M226.616 346.348C226.616 346.348 225.53 345.718 223.976 344.859C223.172 344.446 222.248 343.968 221.249 343.501L219.717 342.817C219.206 342.578 218.63 342.382 218.141 342.176C217.612 341.988 217.071 341.836 216.522 341.719C216.004 341.651 215.495 341.531 215.001 341.361C214.554 341.205 214.128 340.997 213.73 340.741C213.354 340.519 212.991 340.276 212.643 340.013C212.304 339.798 211.981 339.558 211.676 339.296C211.538 339.179 211.393 339.07 211.241 338.97L210.861 338.666C210.383 338.286 210.068 337.981 210.068 337.981V337.46C210.638 336.949 211.297 336.547 212.013 336.276C212.487 336.115 212.974 335.999 213.469 335.928C214.04 335.878 214.614 335.878 215.186 335.928C215.807 335.986 216.417 336.129 217 336.352C217.591 336.628 218.149 336.97 218.663 337.373C219.184 337.797 219.749 338.188 220.227 338.59C221.234 339.338 222.183 340.163 223.063 341.056C223.832 341.815 224.557 342.617 225.236 343.458C225.894 344.267 226.497 345.12 227.04 346.011L226.616 346.348Z" fill="#E1A750"/>
<path d="M217.761 350.227C217.761 350.227 217.467 349.206 216.924 347.75C216.674 347.022 216.305 346.196 215.935 345.359C215.707 344.957 215.512 344.533 215.283 344.131C215.069 343.734 214.826 343.353 214.555 342.99C214.31 342.643 214.009 342.339 213.664 342.089C213.371 341.817 213.023 341.708 212.839 341.448C212.62 341.269 212.445 341.042 212.328 340.785C212.154 340.6 212.024 340.296 211.85 340.068C211.652 339.828 211.467 339.577 211.296 339.318C211.089 339.079 210.872 338.894 210.698 338.688C210.318 338.297 210.046 337.981 210.046 337.981V337.46C210.274 337.212 210.538 336.999 210.829 336.83C211.167 336.616 211.533 336.448 211.915 336.33C212.404 336.22 212.903 336.165 213.404 336.167C214.012 336.214 214.609 336.353 215.175 336.58C215.802 336.826 216.365 337.211 216.822 337.706C217.28 338.201 217.619 338.793 217.815 339.437C218.052 340.032 218.248 340.642 218.402 341.263C218.585 341.83 218.719 342.412 218.804 343.001C218.897 343.551 218.955 344.106 218.978 344.664C218.978 345.207 218.978 345.75 218.978 346.196C218.978 346.641 218.923 347.119 218.869 347.532C218.776 348.447 218.605 349.352 218.358 350.238L217.761 350.227Z" fill="#E1A750"/>
<path d="M209.057 352.096C209.057 352.096 209.166 351.118 209.318 349.651C209.394 348.923 209.46 348.075 209.514 347.195C209.568 346.315 209.612 345.403 209.579 344.512C209.563 344.079 209.501 343.649 209.394 343.229C209.288 342.874 209.211 342.511 209.166 342.143C209.147 341.827 209.183 341.511 209.275 341.208C209.334 340.936 209.41 340.667 209.503 340.404C209.689 339.904 209.813 339.382 209.872 338.851C209.872 338.59 209.872 338.394 209.872 338.231C209.877 338.144 209.877 338.057 209.872 337.971L210.177 337.547H210.437C210.685 337.5 210.939 337.5 211.187 337.547C211.364 337.579 211.538 337.622 211.709 337.677L212.274 337.96C212.69 338.22 213.058 338.551 213.36 338.938C213.712 339.369 213.994 339.853 214.197 340.372C214.413 340.899 214.524 341.464 214.523 342.034C214.513 342.607 214.403 343.173 214.197 343.708L213.632 345.272C213.3 346.251 212.885 347.199 212.393 348.108C211.987 348.879 211.537 349.626 211.046 350.346C210.57 351.054 210.047 351.729 209.481 352.367L209.057 352.096Z" fill="#E1A750"/>
<path d="M179.427 279.188C180.286 293.498 208.351 303.44 208.351 303.44C208.351 303.44 234.591 295.497 233.049 270.007C232.19 255.697 220.325 250.71 205.211 251.623C190.097 252.535 178.591 264.879 179.427 279.188Z" fill="#5B4133"/>
<path d="M265.536 235.52C265.536 267.997 230.767 294.324 187.87 294.324C144.973 294.324 110.193 267.997 110.193 235.52C110.193 203.043 144.962 159.016 187.87 159.016C230.778 159.016 265.536 203.043 265.536 235.52Z" fill="#7E5436"/>
<path d="M216.881 107.21H166.095C179.873 131.679 149.797 154.811 145.266 166.579C139.953 180.367 150.645 184.583 150.645 184.583C150.645 184.583 147.298 193.275 156.077 197.284C162.597 200.262 175.755 193.199 175.755 193.199C175.755 193.199 178.949 201.891 186.794 201.652C199.029 201.348 198.877 188.244 198.877 188.244C198.877 188.244 206.406 201.804 218.521 198.588C227.627 196.165 228.604 181.573 228.604 181.573C228.604 181.573 230.864 177.422 230.625 162.189C230.495 154.724 198.442 131.679 216.881 107.21Z" fill="#EB5E4A"/>
<path d="M233.755 73.5049C233.755 82.1008 231.206 90.5037 226.43 97.651C221.654 104.798 214.867 110.369 206.925 113.658C198.983 116.948 190.245 117.809 181.814 116.132C173.383 114.455 165.639 110.315 159.561 104.237C153.482 98.1588 149.343 90.4146 147.666 81.9839C145.989 73.5531 146.85 64.8143 150.139 56.8727C153.429 48.9311 158.999 42.1433 166.147 37.3676C173.294 32.592 181.697 30.043 190.293 30.043C201.82 30.043 212.874 34.622 221.025 42.7727C229.176 50.9234 233.755 61.9781 233.755 73.5049Z" fill="#FF725E"/>
<path d="M223.574 76.5798C227.398 85.2722 223.824 92.1827 214.555 91.4873C205.287 90.7919 192.662 79.1876 193.346 70.0171C194.031 60.8466 199.996 51.9478 209.047 53.7189C218.098 55.49 218.543 64.9647 223.574 76.5798Z" fill="#F9C4A8"/>
<path d="M193.313 70.9841C193.367 72.4047 193.837 73.7783 194.665 74.9338C195.493 76.0893 196.642 76.9758 197.97 77.483C199.298 77.9901 200.746 78.0954 202.134 77.7858C203.521 77.4763 204.787 76.7655 205.774 75.7419C206.76 74.7184 207.424 73.4273 207.682 72.0294C207.941 70.6315 207.782 69.1885 207.226 67.8799C206.671 66.5714 205.743 65.4552 204.557 64.6703C203.372 63.8853 201.982 63.4662 200.561 63.4652C198.603 63.5023 196.74 64.3151 195.381 65.7249C194.022 67.1347 193.279 69.0263 193.313 70.9841Z" fill="white"/>
<path d="M193.313 70.9842C193.347 71.8716 193.642 72.7295 194.159 73.4512C194.677 74.1728 195.395 74.7265 196.225 75.0432C197.055 75.36 197.959 75.4259 198.826 75.2328C199.693 75.0397 200.484 74.5961 201.101 73.9572C201.718 73.3182 202.133 72.512 202.295 71.6389C202.458 70.7658 202.36 69.8642 202.014 69.0461C201.669 68.2281 201.09 67.5297 200.35 67.0378C199.611 66.5459 198.743 66.2822 197.855 66.2794C196.629 66.3023 195.463 66.8105 194.611 67.6925C193.76 68.5746 193.293 69.7584 193.313 70.9842Z" fill="#3D2A26"/>
<path d="M198.583 68.5938C198.583 69.0601 198.721 69.516 198.981 69.9037C199.24 70.2914 199.608 70.5936 200.039 70.7721C200.47 70.9506 200.944 70.9973 201.401 70.9063C201.858 70.8153 202.278 70.5907 202.608 70.261C202.938 69.9312 203.162 69.5111 203.253 69.0538C203.344 68.5964 203.298 68.1223 203.119 67.6915C202.941 67.2606 202.639 66.8924 202.251 66.6333C201.863 66.3742 201.407 66.236 200.941 66.236C200.316 66.236 199.716 66.4844 199.274 66.9266C198.832 67.3687 198.583 67.9684 198.583 68.5938Z" fill="white"/>
<path d="M158.845 77.5759C155.021 86.3226 158.595 93.1678 167.864 92.4833C177.132 91.7988 189.747 80.1836 189.073 71.0023C188.399 61.8209 182.413 52.9439 173.372 54.7041C164.332 56.4643 163.92 65.9498 158.845 77.5759Z" fill="#F9C4A8"/>
<path d="M189.098 72.5161C189.042 73.9361 188.571 75.3085 187.741 76.4626C186.912 77.6167 185.762 78.5015 184.434 79.007C183.105 79.5124 181.658 79.6162 180.271 79.3055C178.884 78.9948 177.62 78.2832 176.634 77.2593C175.649 76.2354 174.986 74.9444 174.729 73.5468C174.471 72.1492 174.63 70.7067 175.186 69.3989C175.742 68.091 176.67 66.9754 177.855 66.1908C179.04 65.4063 180.429 64.9874 181.85 64.9863C182.821 65.0047 183.778 65.2141 184.667 65.6024C185.557 65.9908 186.361 66.5506 187.034 67.2499C187.707 67.9491 188.236 68.7741 188.59 69.6777C188.944 70.5813 189.116 71.5458 189.098 72.5161Z" fill="white"/>
<path d="M189.098 72.5162C189.063 73.4041 188.769 74.2624 188.251 74.9843C187.733 75.7061 187.014 76.2597 186.184 76.5762C185.353 76.8926 184.448 76.9579 183.581 76.7639C182.714 76.57 181.923 76.1253 181.306 75.4853C180.69 74.8452 180.275 74.0381 180.114 73.1642C179.953 72.2904 180.052 71.3885 180.4 70.5706C180.747 69.7528 181.328 69.0552 182.068 68.5646C182.809 68.074 183.678 67.8121 184.567 67.8114C185.173 67.8227 185.771 67.9534 186.327 68.196C186.883 68.4385 187.386 68.7883 187.807 69.2252C188.228 69.6621 188.558 70.1776 188.78 70.7422C189.001 71.3069 189.109 71.9097 189.098 72.5162Z" fill="#3D2A26"/>
<path d="M183.839 70.1583C183.841 70.6251 183.704 71.0821 183.447 71.4712C183.189 71.8604 182.821 72.1643 182.391 72.3444C181.96 72.5245 181.486 72.5728 181.028 72.483C180.57 72.3933 180.148 72.1696 179.818 71.8403C179.487 71.511 179.261 71.0909 179.169 70.6332C179.077 70.1755 179.123 69.7009 179.302 69.2694C179.48 68.838 179.782 68.4691 180.17 68.2095C180.558 67.95 181.014 67.8114 181.481 67.8114C182.104 67.8114 182.702 68.0583 183.144 68.4981C183.586 68.938 183.836 69.5349 183.839 70.1583Z" fill="white"/>
<path d="M202.397 85.1092C202.397 89.2816 191.944 108.568 191.944 108.568C191.944 108.568 181.481 89.2816 181.481 85.1092C181.351 82.4906 186.164 79.9047 191.933 79.9047C197.703 79.9047 201.799 82.545 202.397 85.1092Z" fill="#E1A750"/>
<path d="M197.116 84.0771C196.447 84.6322 195.988 85.3987 195.812 86.2502C195.704 86.8804 195.367 87.9561 195.66 88.5537C195.67 88.5774 195.686 88.5976 195.708 88.6113C195.729 88.625 195.754 88.6315 195.78 88.6297C196.356 88.6297 196.725 87.9778 197.062 87.5432C197.399 87.1086 197.529 87.0108 197.768 86.75C198.007 86.4892 198.17 86.0655 198.464 85.7938C199.507 84.892 198.17 83.0992 197.116 84.0771Z" fill="#EF7B00"/>
<path d="M186.294 84.0771C186.963 84.6322 187.423 85.3987 187.598 86.2502C187.707 86.8804 188.044 87.9561 187.75 88.5537C187.741 88.5774 187.725 88.5976 187.703 88.6113C187.682 88.625 187.656 88.6315 187.631 88.6297C187.055 88.6297 186.685 87.9778 186.349 87.5432C186.012 87.1086 185.892 87.0108 185.642 86.75C185.392 86.4892 185.24 86.0655 184.947 85.7938C183.904 84.892 185.24 83.0992 186.294 84.0771Z" fill="#EF7B00"/>
<path d="M231.288 47.2431C231.419 52.4585 212.415 57.1741 188.837 57.7609C165.259 58.3476 146.038 54.599 145.907 49.3836C145.907 48.6665 145.907 46.526 145.907 46.526C145.907 46.526 168.019 39.3656 188.381 38.855C208.742 38.3443 231.223 43.8748 231.223 43.8748C231.223 43.8748 231.277 46.5043 231.288 47.2431Z" fill="#201A1F"/>
<path d="M231.212 43.8747C231.343 49.101 212.328 53.8058 188.75 54.4034C165.172 55.001 145.962 51.2415 145.831 45.9935C145.701 40.7455 164.705 36.0624 188.283 35.4757C211.861 34.889 231.082 38.6593 231.212 43.8747Z" fill="#352E35"/>
<g style="mix-blend-mode:multiply">
<path d="M181.003 47.5799C182.893 47.732 183.013 49.916 184.795 50.6005C186.968 51.4589 192.575 50.9048 195.182 50.7744C197.355 50.6657 195.704 48.4926 197.475 47.1127C199.648 45.396 203.896 45.1787 206.884 44.9396C209.747 44.5983 212.518 43.7093 215.044 42.321C215.953 41.7514 216.624 40.8708 216.932 39.8434C217.239 38.816 217.163 37.7117 216.718 36.7362C208.196 35.6288 199.599 35.2109 191.01 35.4867C178.069 35.8018 166.53 37.3664 158.75 39.5721C160.532 49.7204 173.169 46.928 181.003 47.5799Z" fill="#D7CDC5"/>
</g>
<path d="M216.652 36.7362C219.075 39.4417 209.329 44.342 194.031 44.7006C178.732 45.0591 161.043 43.2337 160.956 39.6155C167.877 28.2176 167.693 6.36718 167.693 6.36718L208.764 5.34583C208.764 5.34583 205.385 24.1322 216.652 36.7362Z" fill="#3E363E"/>
<g style="mix-blend-mode:multiply">
<path d="M195.182 41.0498C188.163 39.6916 181.437 35.704 178.047 29.239C174.864 23.1652 172.973 13.1581 176.45 6.1499L167.693 6.36721C167.693 6.36721 167.877 28.2177 160.956 39.6156C161.043 43.2338 178.732 45.0483 194.031 44.7006C208.156 44.3529 217.663 40.0393 217.022 37.3773C209.948 39.5286 202.571 42.4949 195.182 41.0498Z" fill="#D7CDC5"/>
</g>
<path d="M213.306 32.2921C213.306 32.2921 214.523 35.3888 194.911 38.0291C179.34 40.137 163.64 34.0958 163.64 34.0958C161.076 33.4004 161.467 36.2689 162.369 36.9752C160.815 37.2468 159.869 38.0617 160.956 39.6155C161.043 43.2337 178.754 46.0478 194.052 45.6675C209.351 45.2872 219.238 39.2895 216.652 36.7361C217.022 34.563 215.74 35.8125 215.305 35.3453C215.436 33.7155 215.349 32.0422 213.306 32.2921Z" fill="#E94E1B"/>
<g style="mix-blend-mode:multiply">
<path d="M216.652 36.7362C217.022 34.5631 215.74 35.8126 215.305 35.3454C215.414 34.0741 215.468 32.629 214.371 32.553C214.397 33.0176 214.375 33.4837 214.306 33.9438C214.164 34.7369 213.697 36.2472 214.957 36.3124C215.309 36.3077 215.652 36.427 215.924 36.6493C216.163 36.8619 216.333 37.1409 216.412 37.4506C216.492 37.7602 216.477 38.0865 216.37 38.3877C215.359 40.4522 204.364 42.8317 202.332 42.8208C198.92 42.8208 199.192 39.1157 197.171 37.6706C194.606 38.2465 194.596 37.7793 190.065 38.3986C189.065 38.529 183.871 38.1378 182.883 38.2139C182.644 41.8321 181.796 43.6466 179.775 43.7553C176.178 44.118 172.551 43.4708 169.301 41.8864C167.128 40.952 164.053 40.7999 163.075 38.3117C163.029 38.165 163.024 38.0086 163.061 37.8593C163.097 37.71 163.173 37.5735 163.281 37.4642C163.531 37.2143 163.281 35.0846 163.118 33.9546C161.152 33.7699 161.575 36.2798 162.369 36.9318C160.815 37.2034 159.869 38.0183 160.956 39.5721C161.043 43.1903 178.754 46.0044 194.052 45.6241C209.351 45.2438 219.238 39.2896 216.652 36.7362Z" fill="#DCC2BC"/>
</g>
<path d="M208.764 5.34581C208.764 7.32332 195.106 9.3117 185.947 9.53988C176.787 9.76805 167.682 8.35554 167.627 6.36716C167.573 4.37878 176.657 2.59684 185.773 2.36867C194.889 2.1405 208.764 3.35743 208.764 5.34581Z" fill="#352E35"/>
<g style="mix-blend-mode:multiply">
<path d="M188.989 7.79057C179.873 8.01874 170.713 6.59536 170.67 4.61784C170.665 4.47737 170.698 4.33822 170.768 4.21582C168.855 4.84602 167.725 5.59574 167.747 6.38892C167.747 8.3773 176.95 9.78982 186.066 9.56164C194.563 9.3552 207.873 7.58412 208.742 5.76959C205.776 6.72575 194.541 7.64931 188.989 7.79057Z" fill="#C2AAA0"/>
</g>
<path d="M193.976 35.1281H184.773C184.554 35.1252 184.336 35.1661 184.132 35.2485C183.928 35.3309 183.743 35.4531 183.587 35.6079C183.432 35.7627 183.308 35.947 183.224 36.1501C183.141 36.3531 183.098 36.5709 183.1 36.7905V46.8628C183.1 47.3047 183.275 47.7287 183.586 48.0421C183.898 48.3556 184.32 48.5332 184.762 48.5361H193.976C194.418 48.5361 194.842 48.3613 195.156 48.0498C195.469 47.7384 195.647 47.3155 195.649 46.8736V36.8014C195.649 36.3576 195.473 35.932 195.159 35.6182C194.846 35.3044 194.42 35.1281 193.976 35.1281ZM192.998 44.7549C192.998 44.8833 192.973 45.0105 192.924 45.1291C192.875 45.2477 192.803 45.3556 192.712 45.4464C192.621 45.5372 192.513 45.6092 192.395 45.6583C192.276 45.7075 192.149 45.7328 192.02 45.7328H186.664C186.407 45.7328 186.161 45.6309 185.98 45.4495C185.799 45.2682 185.697 45.0222 185.697 44.7658V38.8984C185.7 38.6409 185.804 38.395 185.987 38.2139C186.17 38.0329 186.417 37.9314 186.675 37.9314H192.031C192.288 37.9314 192.534 38.0332 192.715 38.2146C192.896 38.396 192.998 38.6419 192.998 38.8984V44.7549Z" fill="#F8AB08"/>
<g style="mix-blend-mode:multiply">
<path d="M195.617 46.6781C194.47 47.5103 193.152 48.0781 191.76 48.3405C191.401 48.4166 191.021 48.4818 190.673 48.547H193.998C194.44 48.547 194.864 48.3722 195.177 48.0607C195.491 47.7493 195.668 47.3264 195.671 46.8845L195.617 46.6781Z" fill="#D5BEB3"/>
</g>
<g style="mix-blend-mode:multiply">
<path d="M184.415 46.439C183.393 43.7227 182.893 37.7467 185.273 35.1281H184.773C184.554 35.1252 184.336 35.1661 184.132 35.2485C183.928 35.3309 183.743 35.4531 183.587 35.6079C183.432 35.7627 183.308 35.947 183.224 36.1501C183.141 36.3531 183.098 36.5709 183.1 36.7905V46.8628C183.1 47.3047 183.275 47.7287 183.586 48.0421C183.898 48.3556 184.32 48.5332 184.762 48.5361H186.859C186.305 48.4282 185.788 48.1782 185.36 47.8106C184.931 47.443 184.606 46.9704 184.415 46.439Z" fill="#D5BEB3"/>
</g>
<path d="M185.023 39.7568V45.5155C185.022 45.6411 185.045 45.7657 185.092 45.8823C185.138 45.9988 185.208 46.105 185.295 46.1948C185.383 46.2846 185.488 46.3562 185.603 46.4056C185.719 46.455 185.843 46.4811 185.968 46.4825H191.238C191.419 46.4821 191.596 46.4297 191.749 46.3314C191.901 46.2332 192.022 46.0933 192.096 45.9284C191.967 45.9902 191.827 46.0235 191.684 46.0262H186.414C186.289 46.0262 186.165 46.0014 186.05 45.9532C185.934 45.905 185.829 45.8344 185.742 45.7455C185.654 45.6566 185.584 45.5511 185.537 45.4351C185.491 45.3192 185.467 45.1951 185.469 45.07V39.3113C185.466 39.1711 185.5 39.0327 185.566 38.9093C185.405 38.985 185.269 39.1048 185.173 39.2547C185.076 39.4047 185.025 39.5787 185.023 39.7568Z" fill="white"/>
<path d="M184.317 35.8344H193.368C193.802 35.8401 194.217 36.0166 194.522 36.3258C194.827 36.6349 194.998 37.0517 194.998 37.486V47.3844C194.996 47.7065 194.897 48.0207 194.715 48.2862C194.94 48.1382 195.124 47.9364 195.251 47.6993C195.378 47.4622 195.444 47.1971 195.443 46.9281V37.0296C195.444 36.8147 195.403 36.6016 195.322 36.4026C195.241 36.2036 195.121 36.0226 194.97 35.8701C194.818 35.7176 194.638 35.5966 194.439 35.514C194.241 35.4314 194.028 35.3889 193.813 35.3889H184.762C184.493 35.3888 184.229 35.4552 183.992 35.5823C183.755 35.7093 183.553 35.893 183.404 36.1169C183.671 35.9292 183.99 35.8304 184.317 35.8344Z" fill="white"/>
<path d="M190.597 41.4735C190.597 41.825 190.457 42.1622 190.209 42.4108C189.96 42.6594 189.623 42.7991 189.271 42.7991C188.92 42.7991 188.583 42.6594 188.334 42.4108C188.086 42.1622 187.946 41.825 187.946 41.4735V34.4001C187.946 34.0485 188.086 33.7113 188.334 33.4627C188.583 33.2141 188.92 33.0745 189.271 33.0745C189.623 33.0745 189.96 33.2141 190.209 33.4627C190.457 33.7113 190.597 34.0485 190.597 34.4001V41.4735Z" fill="#FCBE00"/>
<g style="mix-blend-mode:multiply">
<path d="M189.619 41.7342C187.446 39.4416 188.033 35.8995 188.956 33.1179C188.673 33.1924 188.422 33.3585 188.243 33.5905C188.065 33.8224 187.968 34.1071 187.968 34.4V41.4735C187.968 41.7809 188.074 42.0787 188.27 42.3161C188.465 42.5534 188.737 42.7154 189.039 42.7745C189.34 42.8335 189.653 42.7859 189.923 42.6398C190.194 42.4936 190.405 42.258 190.521 41.9733C190.364 42.029 190.194 42.036 190.033 41.9933C189.872 41.9507 189.728 41.8604 189.619 41.7342Z" fill="#D5BEB3"/>
</g>
<path d="M190.293 41.104C190.293 41.7017 190.162 42.1906 189.989 42.1906C189.826 42.1906 189.695 41.7017 189.695 41.104V35.3127C189.695 34.7151 189.836 34.2262 189.999 34.2262C190.162 34.2262 190.304 34.7151 190.293 35.3127V41.104Z" fill="white"/>
<defs>
<radialGradient id="paint0_radial" cx="0" cy="0" r="1" gradientUnits="userSpaceOnUse" gradientTransform="translate(182.72 347.481) scale(139.007 17.6076)">
<stop offset="0.01" stop-color="#A1846D"/>
<stop offset="0.12" stop-color="#A68A74"/>
<stop offset="0.27" stop-color="#B29B88"/>
<stop offset="0.45" stop-color="#C7B6A8"/>
<stop offset="0.66" stop-color="#E4DCD5"/>
<stop offset="0.83" stop-color="white"/>
</radialGradient>
</defs>
</svg>
