<svg width="22" height="22" viewBox="0 0 22 22" fill="none" xmlns="http://www.w3.org/2000/svg">
<path d="M11.1275 10.5859C12.5199 10.5859 13.8552 10.0328 14.8398 9.04825C15.8244 8.06368 16.3775 6.72832 16.3775 5.33594C16.3775 3.94355 15.8244 2.60819 14.8398 1.62363C13.8552 0.639061 12.5199 0.0859375 11.1275 0.0859375C9.73512 0.0859375 8.39976 0.639061 7.41519 1.62363C6.43063 2.60819 5.8775 3.94355 5.8775 5.33594C5.8775 6.72832 6.43063 8.06368 7.41519 9.04825C8.39976 10.0328 9.73512 10.5859 11.1275 10.5859ZM14.6275 5.33594C14.6275 6.2642 14.2588 7.15443 13.6024 7.81081C12.946 8.46719 12.0558 8.83594 11.1275 8.83594C10.1992 8.83594 9.30901 8.46719 8.65263 7.81081C7.99625 7.15443 7.6275 6.2642 7.6275 5.33594C7.6275 4.40768 7.99625 3.51744 8.65263 2.86106C9.30901 2.20469 10.1992 1.83594 11.1275 1.83594C12.0558 1.83594 12.946 2.20469 13.6024 2.86106C14.2588 3.51744 14.6275 4.40768 14.6275 5.33594ZM21.6275 19.3359C21.6275 21.0859 19.8775 21.0859 19.8775 21.0859H2.3775C2.3775 21.0859 0.627502 21.0859 0.627502 19.3359C0.627502 17.5859 2.3775 12.3359 11.1275 12.3359C19.8775 12.3359 21.6275 17.5859 21.6275 19.3359ZM19.8775 19.3289C19.8758 18.8984 19.608 17.6034 18.4215 16.4169C17.2805 15.2759 15.1333 14.0859 11.1275 14.0859C7.12 14.0859 4.9745 15.2759 3.8335 16.4169C2.647 17.6034 2.381 18.8984 2.3775 19.3289H19.8775Z" fill="#A0A0A0"/>
</svg>
